<svg xmlns="http://www.w3.org/2000/svg" width="527" height="458" viewBox="0 0 527 458"><text transform="translate(585.09 171.076)"><tspan x="0" y="0" fill="#956143" font-family="'Urbana-Bold'" font-size="59.355">Cookie </tspan><tspan x="0" y="42.646" fill="#956143" font-family="'Urbana-Bold'" font-size="59.355">Control</tspan></text><path fill="#80CAA5" d="M31.577 0L19.056 12.521C13.893 17.685 6.085 18.571 0 15.205V45.52L45.52 0H31.577zM495.423 458l14.159-14.161c4.71-4.706 11.622-5.863 17.418-3.479v-27.885L481.475 458h13.948zM479.168 276.896l29.605-29.606c4.933-4.933 12.274-5.957 18.227-3.105v-29.069l-94.283 94.287c-6.252 6.251-16.391 6.248-22.637 0l-29.609-29.611c-6.25-6.251-6.25-16.381 0-22.633L489.03 148.606c6.25-6.251 16.385-6.255 22.635-.004L527 163.938v-13.936l-47.842-47.841c-6.25-6.249-6.25-16.382 0-22.635l29.604-29.607c4.935-4.932 12.284-5.955 18.238-3.101V17.679c-.181.199-.349.406-.541.599l-93.748 93.748c-6.246 6.25-16.385 6.25-22.631.001l-29.609-29.605c-6.25-6.25-6.25-16.386 0-22.634L440.26 0h-13.941l-13.342 13.343c-6.25 6.25-16.385 6.25-22.637 0L376.997 0h-30.484a16 16 0 0 1-2.618 3.473L235.34 112.028c-6.249 6.251-16.385 6.25-22.636 0L183.1 82.422c-6.249-6.25-6.25-16.381 0-22.633L242.89 0h-13.941l-13.342 13.341c-6.249 6.249-16.384 6.249-22.634 0L179.631 0h-30.486a15.96 15.96 0 0 1-2.62 3.474L37.973 112.025c-6.249 6.25-16.384 6.25-22.634 0L0 96.686v13.947l47.84 47.84c6.249 6.25 6.249 16.386 0 22.635l-29.604 29.604c-4.934 4.936-12.282 5.957-18.236 3.101v29.076l94.286-94.285c6.247-6.251 16.384-6.251 22.632 0l29.607 29.606c6.248 6.249 6.251 16.387 0 22.634L37.971 309.396c-6.251 6.253-16.385 6.248-22.636 0L0 294.061v13.94l47.84 47.839c6.249 6.252 6.249 16.387 0 22.638l-29.605 29.607c-4.933 4.932-12.281 5.953-18.235 3.099v29.129c.178-.197.344-.401.534-.591l93.751-93.746c6.249-6.255 16.385-6.251 22.633 0l29.604 29.604c6.251 6.247 6.251 16.382 0 22.633L86.735 458h13.951l13.337-13.337c6.249-6.251 16.386-6.251 22.635 0L149.995 458h30.487a15.974 15.974 0 0 1 2.619-3.473l108.558-108.552c6.246-6.251 16.381-6.255 22.633 0l29.607 29.607c6.246 6.247 6.246 16.385 0 22.632L284.112 458h13.948l13.336-13.337c6.25-6.247 16.385-6.251 22.637 0L347.369 458h30.488a15.974 15.974 0 0 1 2.619-3.473l108.553-108.552c6.246-6.248 16.385-6.248 22.631 0l15.34 15.34v-13.95l-47.832-47.833c-6.256-6.255-6.256-16.386 0-22.636zM281.785 79.521l29.611-29.609c6.25-6.248 16.385-6.248 22.637 0l108.553 108.553c6.254 6.255 6.25 16.39 0 22.639l-29.609 29.607c-6.25 6.249-16.381 6.251-22.637-.002L281.785 102.156c-6.248-6.25-6.248-16.384 0-22.635zm62.11 121.321L235.343 309.394c-6.25 6.247-16.385 6.247-22.633 0l-29.605-29.604c-6.251-6.251-6.251-16.386 0-22.637l108.554-108.549c6.246-6.251 16.381-6.251 22.633 0l29.604 29.606c6.245 6.248 6.245 16.387-.001 22.632zM84.417 102.159c-6.252-6.25-6.252-16.384 0-22.635l29.606-29.609c6.252-6.251 16.385-6.25 22.634.001L245.21 158.473c6.25 6.247 6.253 16.382 0 22.633l-29.606 29.605c-6.249 6.253-16.384 6.251-22.633 0L84.417 102.159zM245.21 378.478l-29.604 29.607c-6.25 6.251-16.383 6.251-22.637-.004L84.417 299.528c-6.25-6.251-6.252-16.385 0-22.636l29.604-29.604c6.251-6.252 16.387-6.252 22.634 0L245.208 355.84c6.256 6.256 6.253 16.387.002 22.638zm197.37-.005l-29.605 29.608c-6.248 6.251-16.387 6.251-22.635.004L281.785 299.532c-6.248-6.251-6.248-16.386 0-22.637l29.611-29.606c6.25-6.252 16.385-6.248 22.631 0L442.58 355.84c6.252 6.252 6.252 16.387 0 22.633z"/><path fill="#D0E6BB" d="M37.971 309.396l108.555-108.553c6.251-6.247 6.248-16.385 0-22.634l-29.607-29.606c-6.249-6.251-16.385-6.251-22.632 0L0 242.889v51.172l15.334 15.336c6.251 6.248 16.386 6.252 22.637-.001zM18.236 210.711l29.604-29.604c6.249-6.249 6.249-16.385 0-22.635L0 110.633v103.179c5.954 2.856 13.302 1.835 18.236-3.101zM215.606 13.341L228.948 0h-49.317l13.341 13.341c6.251 6.249 16.386 6.249 22.634 0zM37.973 112.025L146.525 3.474A15.992 15.992 0 0 0 149.145 0H45.52L0 45.52v51.166l15.339 15.339c6.25 6.25 16.385 6.25 22.634 0zM18.235 408.085l29.605-29.607c6.249-6.251 6.249-16.386 0-22.638L0 308.001v103.183c5.954 2.854 13.302 1.833 18.235-3.099zM215.604 210.711l29.606-29.605c6.253-6.251 6.25-16.386 0-22.633L136.656 49.917c-6.249-6.251-16.381-6.252-22.634-.001L84.417 79.524c-6.252 6.251-6.252 16.384 0 22.635l108.554 108.552c6.249 6.251 16.384 6.253 22.633 0zM412.977 13.343L426.318 0h-49.321l13.343 13.343c6.252 6.25 16.387 6.251 22.637 0zM192.971-184.028c6.25 6.25 16.384 6.252 22.633 0l29.609-29.607c6.249-6.25 6.25-16.384 0-22.635l-4.934-4.935c-6.25-6.249-16.386-6.249-22.636.001l-29.608 29.607c-6.248 6.251-6.248 16.384 0 22.634l4.936 4.935zM183.101 82.421l29.604 29.606c6.25 6.25 16.387 6.251 22.636 0L343.895 3.473A15.945 15.945 0 0 0 346.513 0H242.89l-59.789 59.788c-6.251 6.252-6.249 16.384 0 22.633zM380.471 82.421l29.609 29.605c6.246 6.25 16.385 6.25 22.631-.001l93.748-93.748c.192-.192.36-.399.541-.599V0h-86.74l-59.789 59.787c-6.25 6.248-6.25 16.383 0 22.634zM146.522 375.579l-29.604-29.604c-6.248-6.251-16.385-6.255-22.633 0L.534 439.722c-.19.189-.355.394-.534.591V458h86.735l59.787-59.788c6.251-6.251 6.251-16.386 0-22.633zM291.658 148.604L183.104 257.153c-6.251 6.251-6.251 16.386 0 22.637l29.605 29.604c6.248 6.247 16.383 6.247 22.633 0l108.551-108.551c6.246-6.245 6.246-16.384 0-22.632l-29.604-29.606c-6.25-6.252-16.385-6.252-22.631-.001zM114.023 444.663L100.687 458h49.309l-13.337-13.337c-6.25-6.251-16.387-6.251-22.636 0zM334.027 247.289c-6.246-6.248-16.381-6.252-22.631 0l-29.611 29.606c-6.248 6.251-6.248 16.386 0 22.637L390.34 408.085c6.248 6.247 16.387 6.247 22.635-.004l29.605-29.608c6.252-6.246 6.252-16.381 0-22.633L334.027 247.289zM508.762 49.918l-29.604 29.607c-6.25 6.253-6.25 16.386 0 22.635L527 150.001V46.817c-5.954-2.854-13.304-1.831-18.238 3.101zM136.655 247.289c-6.248-6.252-16.383-6.252-22.634 0l-29.604 29.604c-6.252 6.251-6.25 16.385 0 22.636L192.97 408.082c6.254 6.255 16.387 6.255 22.637.004l29.604-29.607c6.25-6.251 6.253-16.382-.002-22.638L136.655 247.289zM390.34 210.709c6.256 6.253 16.387 6.251 22.637.002l29.609-29.607c6.25-6.249 6.254-16.384 0-22.639L334.033 49.913c-6.252-6.248-16.387-6.248-22.637 0l-29.611 29.609c-6.248 6.251-6.248 16.384 0 22.635L390.34 210.709zM343.898 375.583l-29.607-29.607c-6.252-6.255-16.387-6.251-22.633 0L183.101 454.527a15.982 15.982 0 0 0-2.619 3.473h103.63l59.786-59.785c6.247-6.247 6.247-16.385 0-22.632zM489.029 148.604L380.471 257.157c-6.25 6.252-6.25 16.382 0 22.633l29.609 29.611c6.246 6.248 16.385 6.251 22.637 0L527 215.114v-51.177L511.664 148.6c-6.25-6.251-16.385-6.247-22.635.004zM489.029 345.976L380.477 454.527a15.95 15.95 0 0 0-2.619 3.473h103.617L527 412.476v-51.16l-15.34-15.34c-6.246-6.248-16.385-6.248-22.631 0zM311.396 444.663L298.061 458h49.309l-13.336-13.337c-6.253-6.251-16.388-6.247-22.638 0zM508.773 247.289l-29.605 29.606c-6.256 6.251-6.256 16.382 0 22.637L527 347.365V244.184c-5.952-2.852-13.294-1.828-18.227 3.105zM19.056 12.521L31.577 0H0v15.205c6.085 3.366 13.893 2.48 19.056-2.684zM607.453 112.026c6.252 6.25 16.387 6.252 22.637 0l4.934-4.929c6.246-6.251 6.246-16.385 0-22.635l-29.611-29.609c-6.256-6.25-16.387-6.248-22.637 0l-4.93 4.93c-6.246 6.251-6.246 16.384 0 22.634l29.607 29.609zM509.582 443.839L495.423 458H527v-17.64c-5.796-2.384-12.708-1.227-17.418 3.479zM334.027 642.029c-6.25-6.248-16.381-6.248-22.635 0l-29.607 29.606c-6.248 6.251-6.248 16.383 0 22.634l4.936 4.936c6.252 6.248 16.387 6.248 22.637 0l29.607-29.606c6.248-6.247 6.248-16.386 0-22.633l-4.938-4.937z"/><g><path fill="#C9AC7D" d="M263.5 369.226c-77.834 0-141.158-63.329-141.158-141.165 0-12.053 1.566-24.093 4.657-35.832 5.216 3.07 11.264 4.63 18.002 4.63 9.961 0 18.492-3.534 24.609-9.845 1.083 1.457 2.786 2.417 4.736 2.417a5.947 5.947 0 0 0 5.945-5.947c0-2.739-1.868-5.027-4.396-5.71.56-1.222 1.088-2.477 1.531-3.8 2.504-2.771 4.537-5.982 6.059-9.563 3.469-1.917 6.54-4.499 9.134-7.695 1.121.07 2.264-.012 3.472-.105 3.46 1.073 7.14 1.615 10.944 1.615 3.973 0 7.686-.603 11.143-1.662 2.36 3.671 6.443 6.12 11.15 6.12 7.38 0 13.369-5.988 13.369-13.375 0-4.088-1.856-7.719-4.756-10.153.079-.172.184-.316.26-.487a31.5 31.5 0 0 0 13.337-10.779c18.821-1.992 27.648-16.221 29.656-29.103a36.434 36.434 0 0 0 3.962-8.756 43.44 43.44 0 0 0 1.284-1.255c68.553 11.191 118.218 69.641 118.218 139.284 0 77.836-63.324 141.166-141.158 141.166z"/><g fill="#282121"><path d="M286.125 85.824l-.812-.129-.543.619c-.596.686-1.268 1.308-1.93 1.93l-.302.275-.112.399c-.914 3.12-2.226 6.028-3.9 8.647l-.217.584c-1.776 12.002-9.993 25.389-27.726 26.96l-.704.059-.393.586c-3.254 4.804-7.618 8.335-12.961 10.504l-.572.235-.241.563c-4.962 11.631-15.407 18.304-28.676 18.304-3.592 0-7.067-.525-10.32-1.56l-.375-.079-.287.021c-1.138.082-2.326.17-3.469.103l-1.355-.062-.466.604c-2.555 3.291-5.63 5.906-9.141 7.759l-.481.252-.202.499c-1.446 3.554-3.44 6.721-5.915 9.407l-.322.549c-4.378 13.433-15.206 21.14-29.697 21.14-6.903 0-12.985-1.759-18.076-5.22l-1.709-1.164-.557 1.992a143.746 143.746 0 0 0-5.294 38.57c0 79.478 64.656 144.133 144.132 144.133s144.132-64.655 144.132-144.133c-.002-71.384-51.104-131.248-121.509-142.347zM126.999 192.34c5.216 3.07 11.264 4.631 18.002 4.631m-18.002-4.631c5.216 3.07 11.264 4.631 18.002 4.631M263.5 369.331c-77.834 0-141.158-63.33-141.158-141.159 0-12.053 1.566-24.096 4.657-35.832 5.216 3.07 11.264 4.631 18.002 4.631 9.958 0 18.492-3.54 24.609-9.845 1.083 1.454 2.786 2.411 4.736 2.411a5.944 5.944 0 0 0 5.945-5.941c0-2.744-1.868-5.026-4.396-5.713a38.274 38.274 0 0 0 1.531-3.8c2.504-2.768 4.537-5.982 6.059-9.563 3.469-1.915 6.54-4.499 9.134-7.695 1.121.068 2.264-.014 3.472-.108 3.46 1.073 7.14 1.618 10.944 1.618 3.973 0 7.686-.603 11.143-1.665 2.36 3.677 6.443 6.123 11.15 6.123 7.38 0 13.369-5.988 13.369-13.373 0-4.088-1.856-7.719-4.756-10.158.079-.165.184-.311.26-.482a31.558 31.558 0 0 0 13.337-10.785c18.821-1.989 27.648-16.218 29.659-29.1a36.356 36.356 0 0 0 3.959-8.756c.434-.408.868-.825 1.284-1.255 68.553 11.188 118.218 69.64 118.218 139.287 0 77.83-63.324 141.16-141.158 141.16z"/><path d="M181.778 213.311c9.029 0 16.342 7.322 16.342 16.351 0 9.026-7.313 16.34-16.342 16.34-9.027 0-16.343-7.314-16.343-16.34 0-9.029 7.316-16.351 16.343-16.351zM235.269 204.398a7.427 7.427 0 0 1 7.428 7.428 7.426 7.426 0 0 1-7.428 7.428 7.426 7.426 0 0 1-7.43-7.428 7.428 7.428 0 0 1 7.43-7.428zM232.301 263.837c7.38 0 13.366 5.984 13.366 13.371 0 7.388-5.985 13.37-13.366 13.37-7.39 0-13.375-5.982-13.375-13.37 0-7.387 5.986-13.371 13.375-13.371zM287.276 231.146c6.563 0 11.886 5.32 11.886 11.889 0 6.56-5.322 11.881-11.886 11.881-6.565 0-11.888-5.321-11.888-11.881.001-6.569 5.323-11.889 11.888-11.889z"/><circle cx="309.563" cy="149.42" r="13.373"/><path d="M281.333 314.358a5.935 5.935 0 0 1 5.943 5.936 5.94 5.94 0 0 1-5.943 5.942 5.94 5.94 0 0 1-5.944-5.942 5.935 5.935 0 0 1 5.944-5.936zM321.452 290.578a4.462 4.462 0 0 1 4.457 4.457 4.462 4.462 0 0 1-4.457 4.463 4.462 4.462 0 0 1-4.46-4.463 4.462 4.462 0 0 1 4.46-4.457zM196.637 302.471c7.383 0 13.372 5.981 13.372 13.366 0 7.39-5.988 13.378-13.372 13.378-7.387 0-13.373-5.988-13.373-13.378 0-7.385 5.986-13.366 13.373-13.366zM162.461 272.751a2.972 2.972 0 1 1 0 5.945 2.977 2.977 0 0 1-2.973-2.974 2.971 2.971 0 0 1 2.973-2.971zM339.282 213.311a4.46 4.46 0 0 1 0 8.921 4.46 4.46 0 0 1 0-8.921zM368.996 174.681c7.387 0 13.375 5.987 13.375 13.372 0 7.387-5.988 13.375-13.375 13.375-7.384 0-13.373-5.988-13.373-13.375 0-7.385 5.989-13.372 13.373-13.372zM364.539 251.945c6.565 0 11.888 5.323 11.888 11.892 0 6.56-5.322 11.885-11.888 11.885-6.563 0-11.883-5.325-11.883-11.885 0-6.568 5.32-11.892 11.883-11.892z"/><circle cx="314.021" cy="329.212" r="8.918"/><path d="M241.21 314.358c2.466 0 4.457 1.989 4.457 4.452s-1.991 4.457-4.457 4.457a4.455 4.455 0 0 1 0-8.909zM279.846 184.522c6.873 0 12.448 5.572 12.448 12.449 0 6.871-5.575 12.439-12.448 12.439-6.877 0-12.448-5.568-12.448-12.439-.001-6.877 5.571-12.449 12.448-12.449z"/></g></g></svg>