<svg xmlns="http://www.w3.org/2000/svg" xmlns:xlink="http://www.w3.org/1999/xlink" width="372" height="109" viewBox="0 0 372 109"><defs><path id="a" d="M0 0h372v109H0z"/></defs><use xlink:href="#a" overflow="visible" fill="#80CAA5"/><clipPath id="b"><use xlink:href="#a" overflow="visible"/></clipPath><g clip-path="url(#b)" fill="#D0E6BB"><path d="M-12.274 86.368L33.274 40.82c3.038-3.035 3.037-7.96 0-10.996L18.89 15.44c-3.035-3.038-7.96-3.038-10.996 0l-45.55 45.548c-3.036 3.037-3.036 7.96 0 10.996l14.385 14.384c3.036 3.037 7.96 3.037 10.996 0zM30.877 139.11l2.397-2.398c3.038-3.035 3.037-7.96 0-10.996L18.89 111.332c-3.035-3.038-7.96-3.038-10.996 0l-2.397 2.397c-3.037 3.035-3.037 7.96 0 10.995L19.88 139.11c3.036 3.037 7.96 3.037 10.997 0zM129.167 29.823L114.783 15.44c-3.036-3.038-7.96-3.038-10.996 0L51.045 68.18c-3.037 3.037-3.037 7.96 0 10.997L65.428 93.56c3.037 3.037 7.96 3.038 10.998.002l52.74-52.742c3.04-3.035 3.037-7.96 0-10.997zM66.838 45.614L81.22 31.23c3.037-3.035 3.037-7.96 0-10.996L35.674-25.313c-3.037-3.037-7.96-3.037-10.998 0L10.292-10.93c-3.037 3.036-3.037 7.96 0 10.997L55.84 45.614c3.037 3.037 7.96 3.038 10.998 0zM162.73-50.278l14.386-14.385c3.037-3.036 3.037-7.96 0-10.997l-45.55-45.548c-3.035-3.037-7.96-3.037-10.995 0l-14.384 14.385c-3.037 3.037-3.037 7.96 0 10.998l45.548 45.548c3.037 3.035 7.96 3.035 10.996 0zM76.427-2.333l52.74-52.74c3.036-3.036 3.036-7.96 0-10.997l-14.384-14.384c-3.036-3.036-7.96-3.036-10.996 0l-52.74 52.742c-3.038 3.036-3.038 7.96 0 10.996L65.43-2.333c3.037 3.037 7.96 3.037 10.997 0zM81.22 127.123c3.037-3.036 3.037-7.96 0-10.998l-52.74-52.74c-3.038-3.037-7.96-3.036-10.998 0L3.1 77.77c-3.037 3.035-3.037 7.96 0 10.997l52.74 52.74c3.038 3.037 7.962 3.037 10.998 0l14.383-14.384zM177.114 31.23c3.038-3.037 3.037-7.96 0-10.996l-52.74-52.742c-3.037-3.037-7.96-3.038-10.998 0L98.992-18.123c-3.038 3.037-3.038 7.96 0 10.997l52.74 52.74c3.037 3.037 7.96 3.038 10.998 0l14.384-14.384zM209.27-128.4l-14.386 14.384c-3.037 3.038-3.037 7.96 0 10.997l52.74 52.742c3.038 3.037 7.962 3.037 11 0l14.383-14.385c3.036-3.037 3.036-7.96 0-10.997l-52.74-52.742c-3.038-3.035-7.96-3.035-10.998 0zM162.73-146.17l14.385-14.385c3.036-3.037 3.037-7.96 0-10.997l-2.397-2.397c-3.037-3.035-7.96-3.035-10.998 0l-14.385 14.386c-3.036 3.037-3.036 7.96 0 10.997l2.398 2.397c3.037 3.037 7.96 3.038 10.996 0zM172.32-98.225l45.546-45.547c3.037-3.037 3.037-7.96 0-10.997l-14.384-14.383c-3.036-3.036-7.96-3.036-10.995 0l-45.548 45.548c-3.038 3.037-3.038 7.96-.002 10.996l14.385 14.385c3.036 3.037 7.96 3.037 10.997 0zM225.06-66.07l-14.383-14.384c-3.036-3.037-7.96-3.036-10.997 0L146.938-27.71c-3.037 3.037-3.036 7.96 0 10.996L161.32-2.33c3.038 3.037 7.962 3.037 11 0l52.74-52.742c3.037-3.038 3.037-7.963 0-11zM313.76-58.876L299.373-73.26c-3.036-3.036-7.96-3.036-10.995 0l-45.55 45.548c-3.036 3.036-3.036 7.96 0 10.997L257.216-2.33c3.035 3.035 7.96 3.035 10.996 0l45.55-45.548c3.034-3.038 3.034-7.962 0-10.998zM129.166 125.716l-14.383-14.384c-3.036-3.037-7.96-3.038-10.997 0l-45.55 45.548c-3.036 3.036-3.035 7.96 0 10.996l14.385 14.385c3.037 3.036 7.96 3.037 10.997 0l45.548-45.548c3.038-3.037 3.038-7.96 0-10.996zM225.06 29.823L210.676 15.44c-3.037-3.037-7.96-3.037-10.996 0l-52.74 52.74c-3.037 3.035-3.037 7.96 0 10.996l14.384 14.384c3.036 3.035 7.96 3.035 10.997 0l52.74-52.74c3.034-3.035 3.034-7.96 0-10.997zM98.993 173.663c-3.037 3.036-3.037 7.96 0 10.998l52.74 52.74c3.036 3.035 7.96 3.035 10.996 0l14.383-14.386c3.037-3.035 3.037-7.96 0-10.995l-52.74-52.74c-3.035-3.038-7.96-3.038-10.996 0l-14.384 14.383zM194.884 77.77c-3.036 3.038-3.035 7.962 0 10.998l52.74 52.74c3.037 3.036 7.962 3.036 10.998 0l14.385-14.386c3.036-3.036 3.036-7.96 0-10.997l-52.74-52.74c-3.036-3.035-7.96-3.037-10.996 0L194.885 77.77zM290.778-18.123c-3.037 3.038-3.037 7.96 0 10.998l52.74 52.74c3.035 3.036 7.958 3.036 10.994 0L368.9 31.228c3.035-3.037 3.035-7.962 0-10.998l-52.74-52.74c-3.037-3.036-7.962-3.036-11 0L290.78-18.123zM98.992 77.77c-3.038 3.036-3.036 7.96 0 10.996l52.74 52.74c3.04 3.04 7.962 3.04 11 .002l14.382-14.384c3.037-3.037 3.038-7.96 0-11l-52.742-52.74c-3.036-3.035-7.96-3.035-10.997 0L98.992 77.77zM194.884-18.125c-3.035 3.037-3.035 7.96 0 10.997l52.74 52.74c3.04 3.04 7.963 3.038 11 0L273.01 31.23c3.035-3.036 3.037-7.96-.002-11l-52.74-52.74c-3.036-3.036-7.96-3.036-10.997 0l-14.386 14.387zM172.32 189.454l52.74-52.74c3.036-3.036 3.036-7.96 0-10.997l-14.384-14.385c-3.038-3.038-7.96-3.037-10.997 0l-52.743 52.74c-3.036 3.037-3.036 7.96 0 10.997l14.386 14.384c3.037 3.038 7.96 3.038 10.997 0zM268.213 93.562l52.74-52.74c3.038-3.038 3.038-7.963.002-11L306.57 15.44c-3.036-3.037-7.96-3.036-10.998 0l-52.74 52.742c-3.04 3.037-3.04 7.96 0 10.996l14.383 14.386c3.036 3.037 7.962 3.04 10.998 0zM295.572 111.332l-52.74 52.74c-3.036 3.037-3.035 7.962 0 10.997l14.383 14.382c3.036 3.036 7.96 3.036 10.996 0l52.742-52.74c3.035-3.035 3.036-7.96 0-10.997l-14.384-14.383c-3.034-3.035-7.96-3.035-10.996 0zM209.27 159.28l-14.383 14.384c-3.035 3.037-3.038 7.96 0 10.997l45.548 45.55c3.036 3.034 7.96 3.034 10.996 0l14.385-14.385c3.036-3.036 3.036-7.96 0-10.996l-45.547-45.55c-3.038-3.037-7.96-3.036-10.997 0zM305.166 63.385L290.78 77.77c-3.037 3.038-3.037 7.96 0 10.998l45.55 45.548c3.035 3.036 7.958 3.036 10.994 0l14.386-14.386c3.036-3.036 3.036-7.96 0-10.997l-45.548-45.548c-3.036-3.037-7.96-3.036-10.996 0zM384.272 22.634L338.724 68.18c-3.035 3.037-3.035 7.96 0 10.997l14.384 14.383c3.035 3.037 7.96 3.035 10.995 0l45.547-45.547c3.037-3.036 3.037-7.96 0-10.997l-14.38-14.382c-3.038-3.036-7.962-3.036-10.998 0zM199.68 207.226l-45.548 45.548c-3.037 3.037-3.037 7.96 0 10.997l14.382 14.382c3.037 3.04 7.96 3.04 10.997.002l45.55-45.55c3.036-3.035 3.036-7.958 0-10.995l-14.383-14.384c-3.037-3.037-7.96-3.037-10.997 0zM67.236-50.676L81.62-65.06c3.036-3.036 3.036-7.96 0-10.997l-2.398-2.397c-3.037-3.036-7.96-3.036-10.998 0L53.84-64.07c-3.035 3.036-3.035 7.96 0 10.997l2.398 2.397c3.038 3.037 7.96 3.036 10.998 0zM-29.055 45.615L-14.67 31.23c3.035-3.035 3.036-7.96 0-10.996l-2.4-2.397c-3.035-3.037-7.96-3.037-10.995 0L-42.45 32.22c-3.036 3.037-3.036 7.96 0 10.998l2.397 2.396c3.038 3.038 7.96 3.037 10.998 0zM129.17 232.606c3.036-3.037 3.036-7.96 0-10.997l-14.387-14.386c-3.037-3.036-7.96-3.036-10.996 0l-2.397 2.396c-3.037 3.036-3.037 7.96 0 10.996l14.385 14.388c3.037 3.035 7.96 3.036 10.998 0l2.396-2.398zM245.23-126.002l-2.397 2.396c-3.037 3.037-3.036 7.96 0 10.997l14.383 14.384c3.036 3.036 7.96 3.037 10.998 0l2.395-2.395c3.037-3.037 3.037-7.962 0-10.998l-14.383-14.384c-3.04-3.036-7.963-3.036-10.998 0zM341.12-30.11l-2.395 2.396c-3.036 3.037-3.036 7.96 0 10.997L353.11-2.332c3.036 3.036 7.96 3.038 10.997 0l2.396-2.395c3.036-3.037 3.036-7.96 0-10.998L352.116-30.11c-3.037-3.036-7.96-3.035-10.996 0zM401.055 63.384L386.67 77.77c-3.038 3.038-3.036 7.96 0 10.997l2.397 2.398c3.036 3.035 7.96 3.037 10.998 0l14.383-14.385c3.036-3.037 3.036-7.96 0-10.998l-2.396-2.398c-3.036-3.036-7.96-3.036-10.997 0zM305.56 158.88l-14.384 14.384c-3.036 3.037-3.036 7.96 0 10.998l2.398 2.396c3.037 3.036 7.96 3.036 10.996 0l14.384-14.384c3.036-3.036 3.036-7.96 0-10.996l-2.397-2.398c-3.036-3.036-7.96-3.036-10.998 0zM209.27 255.17l-14.386 14.385c-3.036 3.037-3.036 7.96 0 10.997l2.397 2.397c3.038 3.035 7.963 3.035 11 0l14.384-14.385c3.035-3.036 3.035-7.96 0-10.997l-2.398-2.398c-3.037-3.035-7.96-3.035-10.997 0z"/></g><g><path fill="#C9AC7D" d="M96.03 97.306c-23.76 0-43.09-19.33-43.09-43.092 0-3.68.477-7.354 1.42-10.938 1.593.938 3.438 1.414 5.496 1.414 3.04 0 5.645-1.08 7.512-3.005.33.444.85.737 1.446.737 1.002 0 1.814-.813 1.814-1.814 0-.837-.57-1.535-1.342-1.744.17-.373.332-.756.467-1.16.765-.845 1.385-1.826 1.85-2.92 1.06-.583 1.996-1.372 2.79-2.347.34.02.69-.004 1.06-.033 1.056.328 2.18.494 3.34.494 1.213 0 2.346-.184 3.402-.507.72 1.122 1.967 1.87 3.403 1.87 2.253 0 4.08-1.83 4.08-4.084 0-1.25-.565-2.356-1.45-3.1.023-.052.055-.096.08-.147 1.635-.702 3.037-1.835 4.07-3.292 5.745-.608 8.44-4.95 9.053-8.884.512-.816.92-1.715 1.21-2.673.132-.124.265-.25.392-.383 20.927 3.416 36.087 21.26 36.087 42.52 0 23.758-19.33 43.09-43.09 43.09z"/><g fill="#282121"><path d="M102.936 10.794l-.248-.04-.166.19c-.182.208-.387.398-.59.588l-.09.084-.035.12c-.28.954-.68 1.84-1.19 2.64l-.066.18c-.54 3.664-3.05 7.75-8.463 8.23l-.215.017-.12.18c-.994 1.466-2.326 2.543-3.957 3.206l-.174.07-.073.172c-1.515 3.55-4.703 5.588-8.754 5.588-1.097 0-2.157-.16-3.15-.476l-.115-.024-.087.006c-.347.026-.71.053-1.058.032l-.414-.02-.143.185c-.78 1.004-1.72 1.803-2.79 2.37l-.147.076-.062.15c-.44 1.086-1.05 2.053-1.806 2.873l-.1.167c-1.335 4.1-4.64 6.453-9.064 6.453-2.107 0-3.964-.537-5.518-1.593l-.522-.355-.17.608c-1.072 3.85-1.616 7.81-1.616 11.774 0 24.26 19.737 44 43.998 44s43.998-19.738 43.998-44c0-21.79-15.598-40.065-37.09-43.453zM54.36 43.31c1.593.937 3.438 1.413 5.496 1.413M54.36 43.31c1.593.937 3.438 1.413 5.496 1.413M96.03 97.34c-23.76 0-43.09-19.334-43.09-43.092 0-3.68.477-7.355 1.42-10.938 1.593.937 3.438 1.413 5.496 1.413 3.04 0 5.645-1.08 7.512-3.004.33.443.85.735 1.446.735 1.002 0 1.814-.812 1.814-1.814 0-.837-.57-1.534-1.342-1.743.17-.373.332-.757.467-1.16.765-.845 1.385-1.827 1.85-2.92 1.06-.583 1.996-1.373 2.79-2.348.34.02.69-.005 1.06-.034 1.056.328 2.18.494 3.34.494 1.213 0 2.346-.184 3.402-.508.72 1.122 1.967 1.87 3.403 1.87 2.253 0 4.08-1.828 4.08-4.083 0-1.25-.565-2.357-1.45-3.1.023-.052.055-.096.08-.148 1.635-.7 3.037-1.834 4.07-3.292 5.745-.607 8.44-4.95 9.054-8.883.51-.816.918-1.715 1.208-2.673.132-.125.265-.25.392-.383 20.927 3.417 36.087 21.26 36.087 42.52 0 23.756-19.33 43.09-43.09 43.09z"/><circle cx="71.083" cy="54.701" r="4.99"/><circle cx="87.412" cy="49.258" r="2.268"/><circle cx="86.505" cy="69.216" r="4.082"/><circle cx="103.288" cy="58.783" r="3.628"/><circle cx="110.091" cy="30.207" r="4.082"/><circle cx="101.473" cy="82.37" r="1.813"/><circle cx="113.72" cy="74.66" r="1.362"/><circle cx="75.618" cy="81.01" r="4.083"/><circle cx="65.186" cy="68.764" r=".907"/><circle cx="119.163" cy="51.073" r="1.361"/><circle cx="128.233" cy="42" r="4.083"/><circle cx="126.873" cy="65.134" r="3.629"/><circle cx="111.452" cy="85.091" r="2.722"/><circle cx="89.225" cy="81.917" r="1.36"/><circle cx="101.019" cy="44.722" r="3.799"/></g></g><g fill="#956143"><path d="M172.863 14.748c4.305 0 7.08 1.19 7.702 1.585 0 6.06-1.53 7.928-3.114 7.928-1.585 0-2.208-.678-5.21-.678-.905 0-2.15.283-2.887.623-.962 2.152-1.302 5.437-1.302 8.72 0 7.363 2.21 9.628 5.664 9.628 1.812 0 3.794-.453 5.437-1.473l1.474 7.872c-2.378 1.7-5.267 2.55-9.004 2.55-9.4 0-13.762-5.665-13.762-19.03-.002-12.91 5.83-17.724 15.005-17.724zM205.765 36.89c0 9.514-3.964 14.61-13.025 14.61-7.02 0-10.873-5.72-10.873-15.176 0-6.74 1.812-14.44 12.743-14.44 8.097 0 11.155 5.436 11.155 15.006zm-11.892 7.363c.68 0 1.415-.17 1.925-.51.17-.623.793-3.06.793-7.022 0-5.89-.564-7.474-2.717-7.474-.68 0-1.36.113-1.983.453-.282.85-.792 3.057-.792 7.02 0 5.89.68 7.533 2.775 7.533zM231.418 36.89c0 9.514-3.964 14.61-13.025 14.61-7.022 0-10.874-5.72-10.874-15.176 0-6.74 1.812-14.44 12.74-14.44 8.1 0 11.158 5.436 11.158 15.006zm-11.894 7.363c.68 0 1.417-.17 1.926-.51.17-.623.793-3.06.793-7.022 0-5.89-.566-7.474-2.72-7.474-.68 0-1.357.113-1.98.453-.284.85-.793 3.057-.793 7.02 0 5.89.68 7.533 2.774 7.533zM249.028 22.393h9.515l-5.776 12.8 6.173 15.742h-10.136l-4.985-14.327v14.327h-9.57V13.898c1.018-.51 3.453-1.02 4.926-1.02 3.624 0 4.644.68 4.644 4.588V35.36l5.208-12.967zM265.45 11.52c2.944 0 4.19 1.417 4.19 4.417 0 2.605-1.585 4.417-5.83 4.417-3.117 0-4.192-1.925-4.192-4.53 0-2.605 1.586-4.304 5.833-4.304zm-5.493 39.415V23.242c1.247-.51 3.172-.85 4.928-.85 3.737 0 4.53 1.077 4.53 4.645v23.898h-9.458zM284.31 21.883c7.814 0 10.36 5.04 10.36 13.48 0 1.472-.055 3.057-.225 4.756H281.93c.17 2.603 1.416 3.963 3.907 3.963 2.888 0 4.7-.906 5.776-.906 1.7 0 2.38 1.585 2.32 6.23-1.98 1.13-5.265 2.095-9.852 2.095-8.835 0-11.948-6.06-11.948-14.78 0-8.61 4.022-14.84 12.177-14.84zm-.115 7.25c-.793 0-1.416.395-1.586.452-.34.85-.737 2.718-.737 5.097l4.416-.396c.113-2.775-.284-5.154-2.095-5.154zM172.863 55.436c4.305 0 7.08 1.19 7.702 1.586 0 6.06-1.53 7.93-3.114 7.93-1.585 0-2.208-.68-5.21-.68-.905 0-2.15.282-2.887.62-.962 2.153-1.302 5.438-1.302 8.724 0 7.36 2.21 9.626 5.664 9.626 1.812 0 3.794-.453 5.437-1.472l1.474 7.87c-2.378 1.7-5.267 2.55-9.004 2.55-9.4 0-13.762-5.663-13.762-19.03-.002-12.91 5.83-17.724 15.005-17.724zM205.765 77.578c0 9.515-3.964 14.61-13.025 14.61-7.02 0-10.873-5.72-10.873-15.177 0-6.738 1.812-14.44 12.743-14.44 8.097 0 11.155 5.438 11.155 15.008zm-11.892 7.362c.68 0 1.415-.17 1.925-.51.17-.623.793-3.058.793-7.02 0-5.892-.564-7.477-2.717-7.477-.68 0-1.36.112-1.983.453-.282.85-.792 3.058-.792 7.022 0 5.89.68 7.532 2.775 7.532zM208.596 63.59c.792-.34 2.322-1.02 4.813-1.02 2.32 0 3.623.68 4.36 3.06 1.302-1.36 3.85-3.06 7.19-3.06 4.7 0 6.91 2.662 6.91 7.76v21.293h-9.344V72.765c0-1.416-.454-2.265-1.87-2.265-1.246 0-2.265.565-2.604.963v20.16h-9.457V63.59zM233.74 63.647h3.454v-2.49c0-3.513 2.49-4.928 8.832-4.42v6.91h5.04v7.135h-5.04v12.063c0 1.472.738 2.037 1.927 2.037 1.19 0 2.095-.226 2.717-.51l.738 6.062c-1.645 1.02-4.363 1.697-7.362 1.697-4.814 0-7.42-2.49-7.42-7.927v-13.42h-2.887v-7.136zM253.558 63.59c.962-.566 3-1.02 4.587-1.02 2.72 0 3.398 1.417 3.907 4.192 1.246-2.266 3.683-4.19 7.248-4.19.342 1.642.454 3.68.397 5.606-.113 2.32-.397 3.51-2.04 3.51-2.036 0-3.567.51-4.642 1.36V91.62h-9.458V63.59zM293.993 77.578c0 9.515-3.966 14.61-13.025 14.61-7.023 0-10.873-5.72-10.873-15.177 0-6.738 1.81-14.44 12.74-14.44 8.1 0 11.158 5.438 11.158 15.008zM282.1 84.94c.68 0 1.415-.17 1.926-.51.17-.623.792-3.058.792-7.02 0-5.892-.566-7.477-2.718-7.477-.68 0-1.36.112-1.98.453-.285.85-.795 3.058-.795 7.022 0 5.89.68 7.532 2.775 7.532zM296.65 54.643c1.135-.51 3.117-1.02 4.93-1.02 3.567 0 4.528.963 4.528 4.587V82.9c0 1.36.68 1.98 1.756 1.98.85 0 1.756-.225 1.982-.34l.453 6.062c-1.757 1.02-4.022 1.586-6.57 1.586-4.36 0-7.08-2.492-7.08-7.646v-29.9z"/></g></svg>