<svg xmlns="http://www.w3.org/2000/svg" width="527" height="458" viewBox="0 0 527 458"><text transform="translate(585.09 171.076)"><tspan x="0" y="0" fill="#956143" font-family="'Urbana-Bold'" font-size="59.355">Cookie </tspan><tspan x="0" y="42.646" fill="#956143" font-family="'Urbana-Bold'" font-size="59.355">Control</tspan></text><path fill="#80CAA5" d="M31.577 0l-12.52 12.52C13.892 17.686 6.084 18.57 0 15.206V45.52L45.52 0H31.577zM495.423 458l14.16-14.16c4.71-4.707 11.62-5.864 17.417-3.48v-27.885L481.475 458h13.948zM479.168 276.896l29.605-29.606c4.933-4.933 12.274-5.957 18.227-3.105v-29.07l-94.283 94.288c-6.252 6.25-16.39 6.248-22.637 0l-29.61-29.61c-6.25-6.252-6.25-16.382 0-22.634l108.56-108.554c6.25-6.25 16.385-6.255 22.635-.004L527 163.938v-13.936l-47.842-47.84c-6.25-6.25-6.25-16.383 0-22.636l29.604-29.607c4.935-4.933 12.284-5.956 18.238-3.102v-29.14c-.18.2-.35.407-.54.6l-93.75 93.748c-6.245 6.25-16.384 6.25-22.63 0l-29.61-29.604c-6.25-6.25-6.25-16.386 0-22.634L440.26 0h-13.94l-13.343 13.343c-6.25 6.25-16.385 6.25-22.637 0L376.997 0h-30.484a16 16 0 0 1-2.618 3.473L235.34 112.028c-6.25 6.25-16.385 6.25-22.636 0L183.1 82.422c-6.25-6.25-6.25-16.38 0-22.633L242.89 0h-13.94l-13.343 13.34c-6.25 6.25-16.384 6.25-22.634 0L179.63 0h-30.485a15.96 15.96 0 0 1-2.62 3.474L37.973 112.024c-6.25 6.25-16.384 6.25-22.634 0L0 96.687v13.947l47.84 47.84c6.25 6.25 6.25 16.386 0 22.635l-29.604 29.604c-4.934 4.936-12.282 5.957-18.236 3.1v29.077l94.286-94.286c6.247-6.25 16.384-6.25 22.632 0l29.607 29.606c6.248 6.25 6.25 16.387 0 22.634L37.97 309.396c-6.25 6.253-16.384 6.248-22.635 0L0 294.06V308l47.84 47.84c6.25 6.252 6.25 16.387 0 22.638l-29.605 29.607c-4.933 4.932-12.28 5.953-18.235 3.1v29.128c.178-.197.344-.4.534-.59l93.75-93.747c6.25-6.255 16.386-6.25 22.634 0l29.604 29.604c6.25 6.247 6.25 16.382 0 22.633L86.735 458h13.95l13.338-13.337c6.25-6.25 16.386-6.25 22.635 0L149.995 458h30.487c.7-1.24 1.562-2.416 2.62-3.473l108.557-108.552c6.245-6.25 16.38-6.255 22.632 0l29.607 29.607c6.245 6.247 6.245 16.385 0 22.632L284.11 458h13.948l13.336-13.337c6.25-6.247 16.385-6.25 22.637 0L347.37 458h30.487c.7-1.24 1.562-2.416 2.62-3.473l108.552-108.552c6.245-6.248 16.384-6.248 22.63 0l15.34 15.34v-13.95l-47.832-47.833c-6.256-6.255-6.256-16.386 0-22.636zM281.785 79.52l29.61-29.608c6.25-6.248 16.386-6.248 22.638 0l108.553 108.553c6.254 6.255 6.25 16.39 0 22.64l-29.61 29.606c-6.25 6.25-16.38 6.252-22.636 0L281.785 102.155c-6.248-6.25-6.248-16.384 0-22.635zm62.11 121.322L235.343 309.394c-6.25 6.247-16.385 6.247-22.633 0l-29.605-29.604c-6.25-6.25-6.25-16.386 0-22.637l108.554-108.55c6.245-6.25 16.38-6.25 22.632 0l29.604 29.607c6.245 6.248 6.245 16.387 0 22.632zM84.417 102.16c-6.252-6.25-6.252-16.385 0-22.636l29.606-29.61c6.252-6.25 16.385-6.25 22.634.002L245.21 158.473c6.25 6.247 6.253 16.382 0 22.633l-29.606 29.605c-6.25 6.254-16.384 6.252-22.633 0L84.418 102.16zM245.21 378.477l-29.604 29.607c-6.25 6.25-16.383 6.25-22.637-.004L84.416 299.53c-6.25-6.25-6.252-16.385 0-22.636l29.604-29.604c6.252-6.252 16.388-6.252 22.635 0L245.208 355.84c6.256 6.256 6.253 16.387.002 22.638zm197.37-.005l-29.605 29.608c-6.248 6.252-16.387 6.252-22.635.005L281.785 299.532c-6.248-6.25-6.248-16.386 0-22.637l29.61-29.606c6.25-6.253 16.386-6.25 22.632 0L442.58 355.84c6.252 6.252 6.252 16.387 0 22.633z"/><path fill="#D0E6BB" d="M37.97 309.396l108.556-108.553c6.25-6.247 6.248-16.385 0-22.634l-29.607-29.607c-6.25-6.25-16.386-6.25-22.633 0L0 242.89v51.17l15.334 15.337c6.25 6.248 16.386 6.252 22.637 0zM18.236 210.71l29.604-29.603c6.25-6.25 6.25-16.385 0-22.635L0 110.632v103.18c5.954 2.856 13.302 1.835 18.236-3.1zM215.606 13.34L228.948 0H179.63l13.342 13.34c6.25 6.25 16.386 6.25 22.634 0zM37.973 112.025L146.525 3.475A15.992 15.992 0 0 0 149.145 0H45.52L0 45.52v51.166l15.34 15.34c6.25 6.25 16.384 6.25 22.633 0zM18.235 408.085l29.605-29.607c6.25-6.25 6.25-16.386 0-22.638L0 308v103.184c5.954 2.854 13.302 1.833 18.235-3.1zM215.604 210.71l29.606-29.604c6.253-6.25 6.25-16.386 0-22.633L136.656 49.917c-6.25-6.25-16.38-6.252-22.634 0L84.417 79.523c-6.252 6.25-6.252 16.384 0 22.635L192.97 210.71c6.25 6.252 16.385 6.254 22.634 0zM412.977 13.343L426.317 0h-49.32l13.343 13.343c6.252 6.25 16.387 6.25 22.637 0zM192.97-184.028c6.25 6.25 16.385 6.252 22.634 0l29.61-29.607c6.248-6.25 6.25-16.384 0-22.635l-4.935-4.935c-6.25-6.25-16.387-6.25-22.637 0l-29.608 29.608c-6.248 6.25-6.248 16.384 0 22.634l4.936 4.935zM183.1 82.42l29.605 29.607c6.25 6.25 16.387 6.25 22.636 0L343.896 3.473A15.945 15.945 0 0 0 346.513 0H242.89L183.1 59.788c-6.25 6.252-6.248 16.384 0 22.633zM380.47 82.42l29.61 29.606c6.246 6.25 16.385 6.25 22.63 0l93.75-93.75c.19-.19.36-.398.54-.598V0h-86.74l-59.79 59.787c-6.25 6.248-6.25 16.383 0 22.634zM146.522 375.58l-29.604-29.605c-6.248-6.25-16.385-6.255-22.633 0L.535 439.722c-.19.19-.356.394-.535.59V458h86.735l59.787-59.788c6.25-6.25 6.25-16.386 0-22.633zM291.658 148.604l-108.554 108.55c-6.25 6.25-6.25 16.385 0 22.636l29.605 29.604c6.247 6.247 16.382 6.247 22.632 0l108.55-108.55c6.247-6.246 6.247-16.385 0-22.633l-29.603-29.605c-6.25-6.252-16.386-6.252-22.632 0zM114.023 444.663L100.687 458h49.31l-13.338-13.337c-6.25-6.25-16.388-6.25-22.637 0zM334.027 247.29c-6.246-6.25-16.38-6.253-22.63 0l-29.612 29.605c-6.248 6.25-6.248 16.386 0 22.637L390.34 408.085c6.248 6.247 16.387 6.247 22.635-.004l29.605-29.607c6.252-6.246 6.252-16.38 0-22.633L334.027 247.29zM508.762 49.918l-29.604 29.607c-6.25 6.253-6.25 16.386 0 22.635L527 150V46.818c-5.954-2.854-13.304-1.83-18.238 3.1zM136.655 247.29c-6.248-6.253-16.383-6.253-22.634 0l-29.603 29.603c-6.252 6.25-6.25 16.385 0 22.636L192.97 408.08c6.254 6.255 16.387 6.255 22.637.004l29.604-29.607c6.25-6.252 6.254-16.383 0-22.64L136.654 247.29zM390.34 210.71c6.256 6.252 16.387 6.25 22.637 0l29.61-29.606c6.25-6.25 6.253-16.384 0-22.64L334.032 49.915c-6.252-6.25-16.387-6.25-22.637 0l-29.61 29.608c-6.25 6.25-6.25 16.384 0 22.635L390.34 210.71zM343.898 375.583l-29.607-29.607c-6.25-6.255-16.386-6.25-22.632 0L183.1 454.526a15.982 15.982 0 0 0-2.618 3.474h103.63l59.786-59.785c6.247-6.247 6.247-16.385 0-22.632zM489.03 148.604L380.47 257.157c-6.25 6.252-6.25 16.382 0 22.633l29.61 29.61c6.246 6.25 16.385 6.252 22.637 0L527 215.115v-51.177L511.664 148.6c-6.25-6.25-16.385-6.247-22.635.004zM489.03 345.976l-108.553 108.55a15.95 15.95 0 0 0-2.62 3.474h103.618L527 412.476v-51.16l-15.34-15.34c-6.246-6.248-16.385-6.248-22.63 0zM311.396 444.663L298.06 458h49.31l-13.336-13.337c-6.253-6.25-16.388-6.247-22.638 0zM508.773 247.29l-29.605 29.605c-6.256 6.25-6.256 16.382 0 22.637L527 347.365v-103.18c-5.952-2.853-13.294-1.83-18.227 3.104zM19.056 12.52L31.576 0H0v15.205c6.085 3.366 13.893 2.48 19.056-2.684zM607.453 112.026c6.252 6.25 16.387 6.252 22.637 0l4.934-4.93c6.246-6.25 6.246-16.384 0-22.634l-29.61-29.61c-6.257-6.25-16.388-6.247-22.638 0l-4.93 4.93c-6.246 6.252-6.246 16.385 0 22.635l29.607 29.61zM509.582 443.84L495.422 458H527v-17.64c-5.796-2.384-12.708-1.227-17.418 3.48zM334.027 642.03c-6.25-6.25-16.38-6.25-22.635 0l-29.607 29.605c-6.248 6.25-6.248 16.383 0 22.634l4.936 4.935c6.253 6.248 16.388 6.248 22.638 0l29.607-29.606c6.248-6.248 6.248-16.387 0-22.634l-4.938-4.937z"/><g><path fill="#C9AC7D" d="M263.5 369.226c-77.834 0-141.158-63.33-141.158-141.165 0-12.052 1.566-24.092 4.657-35.83 5.215 3.07 11.263 4.63 18 4.63 9.962 0 18.493-3.535 24.61-9.846 1.083 1.457 2.786 2.417 4.736 2.417a5.947 5.947 0 0 0 5.945-5.946c0-2.74-1.867-5.027-4.395-5.71.56-1.222 1.088-2.477 1.53-3.8 2.505-2.77 4.538-5.982 6.06-9.563 3.47-1.916 6.54-4.498 9.134-7.694 1.12.07 2.263-.012 3.47-.105 3.46 1.074 7.14 1.616 10.945 1.616 3.973 0 7.686-.603 11.143-1.662 2.36 3.67 6.443 6.12 11.15 6.12 7.38 0 13.37-5.988 13.37-13.375 0-4.09-1.857-7.72-4.757-10.154.08-.172.185-.316.26-.487a31.5 31.5 0 0 0 13.338-10.78c18.82-1.992 27.648-16.22 29.656-29.103a36.434 36.434 0 0 0 3.962-8.756c.434-.41.868-.826 1.284-1.254 68.553 11.19 118.218 69.64 118.218 139.284 0 77.836-63.324 141.166-141.158 141.166z"/><g fill="#282121"><path d="M286.125 85.824l-.812-.13-.543.62c-.596.686-1.268 1.308-1.93 1.93l-.302.275-.112.398c-.914 3.12-2.226 6.028-3.9 8.647l-.217.584c-1.777 12-9.994 25.388-27.727 26.96l-.704.058-.394.586c-3.254 4.804-7.618 8.335-12.96 10.504l-.573.235-.24.563c-4.963 11.63-15.408 18.304-28.677 18.304-3.592 0-7.067-.525-10.32-1.56l-.375-.08-.286.022c-1.138.082-2.326.17-3.47.103l-1.354-.062-.466.604c-2.555 3.29-5.63 5.906-9.14 7.76l-.482.25-.202.5c-1.446 3.554-3.44 6.72-5.915 9.407l-.322.55c-4.378 13.432-15.206 21.14-29.697 21.14-6.903 0-12.985-1.76-18.076-5.22l-1.71-1.165-.556 1.99a143.746 143.746 0 0 0-5.294 38.57c0 79.48 64.656 144.134 144.132 144.134S407.634 307.65 407.634 228.17c-.002-71.383-51.104-131.247-121.51-142.346zM127 192.34c5.215 3.07 11.263 4.63 18 4.63m-18-4.63c5.215 3.07 11.263 4.63 18 4.63m118.5 172.36c-77.834 0-141.158-63.33-141.158-141.158 0-12.053 1.566-24.096 4.657-35.832 5.215 3.07 11.263 4.63 18 4.63 9.96 0 18.493-3.54 24.61-9.844 1.083 1.454 2.786 2.41 4.736 2.41a5.944 5.944 0 0 0 5.945-5.94c0-2.744-1.867-5.026-4.395-5.713.56-1.22 1.088-2.48 1.53-3.8 2.505-2.768 4.538-5.982 6.06-9.563 3.47-1.915 6.54-4.5 9.134-7.695 1.12.068 2.263-.014 3.47-.108 3.46 1.073 7.14 1.618 10.945 1.618a37.75 37.75 0 0 0 11.143-1.665c2.36 3.677 6.443 6.123 11.15 6.123 7.38 0 13.37-5.988 13.37-13.373 0-4.088-1.857-7.72-4.757-10.158.08-.165.185-.31.26-.482 5.36-2.3 9.954-6.01 13.338-10.785 18.82-1.99 27.648-16.218 29.66-29.1a36.356 36.356 0 0 0 3.958-8.756c.434-.41.868-.826 1.284-1.256 68.553 11.188 118.218 69.64 118.218 139.287 0 77.83-63.324 141.16-141.158 141.16z"/><path d="M181.778 213.31c9.03 0 16.342 7.323 16.342 16.352 0 9.026-7.313 16.34-16.342 16.34-9.027 0-16.343-7.314-16.343-16.34 0-9.03 7.316-16.35 16.343-16.35zM235.27 204.398a7.427 7.427 0 0 1 7.427 7.428 7.426 7.426 0 0 1-7.428 7.428 7.426 7.426 0 0 1-7.43-7.428 7.428 7.428 0 0 1 7.43-7.428zM232.3 263.837c7.38 0 13.367 5.984 13.367 13.37 0 7.39-5.985 13.37-13.366 13.37-7.39 0-13.374-5.98-13.374-13.37 0-7.386 5.986-13.37 13.375-13.37zM287.276 231.146c6.563 0 11.886 5.32 11.886 11.89 0 6.56-5.322 11.88-11.886 11.88-6.565 0-11.888-5.32-11.888-11.88 0-6.57 5.323-11.89 11.888-11.89z"/><circle cx="309.563" cy="149.42" r="13.373"/><path d="M281.333 314.358a5.935 5.935 0 0 1 5.943 5.936 5.94 5.94 0 0 1-5.943 5.942 5.94 5.94 0 0 1-5.944-5.942 5.935 5.935 0 0 1 5.943-5.936zM321.452 290.578c2.46 0 4.457 2 4.457 4.457a4.462 4.462 0 0 1-4.458 4.463c-2.464 0-4.46-2-4.46-4.463a4.462 4.462 0 0 1 4.46-4.457zM196.637 302.47c7.383 0 13.372 5.982 13.372 13.367 0 7.39-5.99 13.378-13.373 13.378-7.387 0-13.373-5.988-13.373-13.378 0-7.385 5.986-13.366 13.373-13.366zM162.46 272.75a2.972 2.972 0 0 1 0 5.946 2.977 2.977 0 0 1-2.972-2.974 2.97 2.97 0 0 1 2.973-2.97zM339.282 213.31a4.46 4.46 0 0 1 0 8.922 4.46 4.46 0 0 1 0-8.92zM368.996 174.68c7.387 0 13.375 5.988 13.375 13.373 0 7.387-5.987 13.375-13.374 13.375-7.384 0-13.373-5.988-13.373-13.375 0-7.385 5.99-13.372 13.373-13.372zM364.54 251.945c6.564 0 11.887 5.323 11.887 11.892 0 6.56-5.322 11.885-11.888 11.885-6.564 0-11.884-5.325-11.884-11.885 0-6.568 5.32-11.892 11.883-11.892z"/><circle cx="314.021" cy="329.212" r="8.918"/><path d="M241.21 314.358c2.466 0 4.457 1.99 4.457 4.452s-1.99 4.457-4.457 4.457a4.455 4.455 0 0 1 0-8.91zM279.846 184.522c6.873 0 12.448 5.572 12.448 12.45 0 6.87-5.575 12.438-12.448 12.438-6.877 0-12.448-5.568-12.448-12.44 0-6.876 5.57-12.448 12.448-12.448z"/></g></g></svg>