<svg xmlns="http://www.w3.org/2000/svg" xmlns:xlink="http://www.w3.org/1999/xlink" width="372" height="109" viewBox="0 0 372 109"><defs><path id="a" d="M0 0h372v109H0z"/></defs><use xlink:href="#a" overflow="visible" fill="#80CAA5"/><clipPath id="b"><use xlink:href="#a" overflow="visible"/></clipPath><g clip-path="url(#b)" fill="#D0E6BB"><path d="M-12.274 86.368l45.548-45.547a7.775 7.775 0 0 0 0-10.997L18.89 15.439a7.773 7.773 0 0 0-10.996.001l-45.549 45.548a7.774 7.774 0 0 0 0 10.996l14.384 14.384a7.776 7.776 0 0 0 10.997 0zM30.877 139.109l2.397-2.397a7.773 7.773 0 0 0 0-10.996l-14.383-14.384a7.774 7.774 0 0 0-10.997 0l-2.397 2.397a7.774 7.774 0 0 0 0 10.996l14.384 14.384a7.773 7.773 0 0 0 10.996 0zM129.167 29.823l-14.384-14.384a7.774 7.774 0 0 0-10.996 0L51.045 68.181a7.774 7.774 0 0 0 0 10.996l14.383 14.384a7.779 7.779 0 0 0 10.998.001l52.741-52.742a7.776 7.776 0 0 0 0-10.997zM66.838 45.614l14.383-14.383a7.777 7.777 0 0 0 0-10.997L35.673-25.313a7.777 7.777 0 0 0-10.998 0L10.292-10.931a7.777 7.777 0 0 0 0 10.998L55.84 45.614a7.776 7.776 0 0 0 10.998 0zM162.73-50.278l14.386-14.385a7.776 7.776 0 0 0 0-10.997l-45.549-45.548a7.774 7.774 0 0 0-10.996 0l-14.385 14.385a7.777 7.777 0 0 0 0 10.998l45.548 45.548a7.777 7.777 0 0 0 10.996-.001zM76.427-2.333l52.74-52.74a7.776 7.776 0 0 0-.001-10.997l-14.383-14.384a7.776 7.776 0 0 0-10.996 0L51.046-27.712a7.774 7.774 0 0 0 0 10.996L65.431-2.333a7.774 7.774 0 0 0 10.996 0zM81.221 127.123a7.779 7.779 0 0 0 0-10.998L28.48 63.385a7.778 7.778 0 0 0-10.998 0L3.099 77.77a7.777 7.777 0 0 0 0 10.997l52.742 52.741a7.777 7.777 0 0 0 10.997 0l14.383-14.385zM177.114 31.23a7.773 7.773 0 0 0 0-10.996l-52.741-52.742a7.775 7.775 0 0 0-10.997 0L98.992-18.123a7.774 7.774 0 0 0 0 10.997l52.741 52.74a7.775 7.775 0 0 0 10.997 0l14.384-14.384zM209.269-128.401l-14.385 14.385a7.776 7.776 0 0 0 0 10.997l52.741 52.741a7.777 7.777 0 0 0 10.998 0l14.384-14.385a7.777 7.777 0 0 0 0-10.997l-52.74-52.742a7.78 7.78 0 0 0-10.998.001zM162.729-146.17l14.386-14.385a7.776 7.776 0 0 0 0-10.997l-2.397-2.397a7.779 7.779 0 0 0-10.998 0l-14.385 14.385a7.777 7.777 0 0 0 0 10.997l2.398 2.397a7.773 7.773 0 0 0 10.996 0zM172.32-98.225l45.546-45.547a7.776 7.776 0 0 0 0-10.997l-14.384-14.384a7.774 7.774 0 0 0-10.995.001l-45.548 45.547a7.775 7.775 0 0 0-.001 10.996l14.385 14.384a7.776 7.776 0 0 0 10.997 0zM225.061-66.071l-14.384-14.383a7.776 7.776 0 0 0-10.997.001l-52.742 52.742a7.776 7.776 0 0 0 0 10.997L161.321-2.33a7.777 7.777 0 0 0 10.998 0l52.741-52.742a7.779 7.779 0 0 0 .001-10.999zM313.759-58.876L299.374-73.26a7.775 7.775 0 0 0-10.995 0l-45.548 45.548a7.776 7.776 0 0 0 0 10.997l14.384 14.384a7.776 7.776 0 0 0 10.996 0l45.548-45.547a7.78 7.78 0 0 0 0-10.998zM129.166 125.716l-14.383-14.384a7.775 7.775 0 0 0-10.997 0L58.237 156.88a7.775 7.775 0 0 0 0 10.996l14.384 14.385a7.777 7.777 0 0 0 10.996 0l45.548-45.549a7.773 7.773 0 0 0 .001-10.996zM225.06 29.823L210.676 15.44a7.774 7.774 0 0 0-10.996 0l-52.74 52.739a7.776 7.776 0 0 0 0 10.997l14.384 14.384a7.78 7.78 0 0 0 10.997 0l52.74-52.74a7.782 7.782 0 0 0-.001-10.997zM98.993 173.663a7.777 7.777 0 0 0 0 10.998l52.739 52.74a7.78 7.78 0 0 0 10.997-.002l14.384-14.385a7.774 7.774 0 0 0 .001-10.995l-52.74-52.74a7.776 7.776 0 0 0-10.997 0l-14.384 14.384zM194.884 77.771a7.778 7.778 0 0 0 0 10.997l52.741 52.74a7.776 7.776 0 0 0 10.997-.001l14.385-14.385a7.777 7.777 0 0 0 0-10.997l-52.74-52.74a7.776 7.776 0 0 0-10.996 0l-14.387 14.386zM290.778-18.123a7.777 7.777 0 0 0 0 10.998l52.739 52.739a7.773 7.773 0 0 0 10.995 0L368.9 31.229a7.78 7.78 0 0 0 0-10.997l-52.74-52.74a7.78 7.78 0 0 0-10.999 0l-14.383 14.385zM98.992 77.769a7.776 7.776 0 0 0 0 10.997l52.741 52.74a7.775 7.775 0 0 0 10.998.002l14.383-14.384a7.776 7.776 0 0 0-.001-10.999l-52.741-52.74a7.777 7.777 0 0 0-10.997 0L98.992 77.769zM194.884-18.125a7.78 7.78 0 0 0 0 10.997l52.741 52.74a7.776 7.776 0 0 0 10.999.001l14.385-14.385a7.777 7.777 0 0 0-.001-10.999l-52.74-52.741a7.777 7.777 0 0 0-10.997 0l-14.387 14.387zM172.32 189.454l52.74-52.74a7.777 7.777 0 0 0 0-10.997l-14.384-14.385a7.775 7.775 0 0 0-10.997 0l-52.742 52.741a7.776 7.776 0 0 0 0 10.996l14.386 14.385a7.774 7.774 0 0 0 10.997 0zM268.213 93.562l52.74-52.741a7.777 7.777 0 0 0 .002-10.998L306.57 15.438a7.777 7.777 0 0 0-10.998.001L242.831 68.18a7.773 7.773 0 0 0 0 10.996l14.384 14.386a7.775 7.775 0 0 0 10.998 0zM295.572 111.332l-52.739 52.741a7.775 7.775 0 0 0 0 10.996l14.382 14.383a7.776 7.776 0 0 0 10.996 0l52.741-52.741a7.777 7.777 0 0 0 0-10.996l-14.384-14.383a7.778 7.778 0 0 0-10.996 0zM209.271 159.28l-14.384 14.384a7.776 7.776 0 0 0 0 10.997l45.548 45.548a7.778 7.778 0 0 0 10.996 0l14.384-14.384a7.776 7.776 0 0 0 0-10.996l-45.547-45.549a7.776 7.776 0 0 0-10.997 0zM305.166 63.385l-14.385 14.386a7.774 7.774 0 0 0 0 10.997l45.548 45.548a7.775 7.775 0 0 0 10.995 0l14.386-14.386a7.777 7.777 0 0 0 0-10.997l-45.548-45.548a7.775 7.775 0 0 0-10.996 0zM384.272 22.634l-45.548 45.547a7.778 7.778 0 0 0 0 10.996l14.384 14.383a7.775 7.775 0 0 0 10.995 0l45.547-45.547a7.776 7.776 0 0 0 0-10.997l-14.38-14.382a7.779 7.779 0 0 0-10.998 0zM199.68 207.226l-45.548 45.548a7.776 7.776 0 0 0 0 10.997l14.382 14.381a7.772 7.772 0 0 0 10.997.002l45.548-45.549a7.774 7.774 0 0 0 0-10.996l-14.382-14.383a7.776 7.776 0 0 0-10.997 0zM67.236-50.676L81.619-65.06a7.776 7.776 0 0 0 0-10.997l-2.397-2.397a7.779 7.779 0 0 0-10.998 0L53.841-64.07a7.777 7.777 0 0 0 0 10.997l2.397 2.397a7.778 7.778 0 0 0 10.998 0zM-29.055 45.615l14.384-14.384a7.776 7.776 0 0 0 0-10.997l-2.398-2.397a7.774 7.774 0 0 0-10.996 0L-42.45 32.221a7.777 7.777 0 0 0 0 10.997l2.397 2.396a7.777 7.777 0 0 0 10.998.001zM129.169 232.606a7.776 7.776 0 0 0 0-10.997l-14.386-14.385a7.776 7.776 0 0 0-10.996 0l-2.397 2.396a7.774 7.774 0 0 0 0 10.996l14.385 14.388a7.78 7.78 0 0 0 10.998 0l2.396-2.398zM245.229-126.002l-2.396 2.396a7.776 7.776 0 0 0 0 10.997l14.383 14.383a7.778 7.778 0 0 0 10.998 0l2.395-2.395a7.774 7.774 0 0 0 0-10.997l-14.382-14.384a7.779 7.779 0 0 0-10.998 0zM341.12-30.109l-2.395 2.395a7.777 7.777 0 0 0 0 10.997L353.11-2.332a7.776 7.776 0 0 0 10.997 0l2.396-2.395a7.779 7.779 0 0 0 0-10.998L352.116-30.11a7.776 7.776 0 0 0-10.996.001zM401.055 63.384L386.67 77.77a7.776 7.776 0 0 0 0 10.997l2.397 2.398a7.779 7.779 0 0 0 10.998 0l14.383-14.385a7.779 7.779 0 0 0 0-10.998l-2.396-2.398a7.777 7.777 0 0 0-10.997 0zM305.559 158.88l-14.383 14.384a7.779 7.779 0 0 0 0 10.998l2.398 2.396a7.777 7.777 0 0 0 10.996.001l14.384-14.385a7.776 7.776 0 0 0 0-10.996l-2.397-2.398a7.779 7.779 0 0 0-10.998 0zM209.269 255.17l-14.385 14.385a7.777 7.777 0 0 0 0 10.997l2.397 2.397a7.78 7.78 0 0 0 10.999 0l14.384-14.384a7.78 7.78 0 0 0 0-10.997l-2.398-2.398a7.78 7.78 0 0 0-10.997 0z"/></g><g><path fill="#C9AC7D" d="M96.029 97.306c-23.76 0-43.09-19.331-43.09-43.092 0-3.679.478-7.354 1.421-10.938 1.593.938 3.438 1.414 5.496 1.414 3.041 0 5.645-1.079 7.512-3.005a1.8 1.8 0 0 0 1.446.737 1.809 1.809 0 1 0 .472-3.558c.171-.373.332-.756.467-1.16a10.38 10.38 0 0 0 1.85-2.919 9.505 9.505 0 0 0 2.789-2.348c.342.021.691-.004 1.06-.033 1.057.328 2.18.494 3.341.494 1.213 0 2.346-.184 3.402-.507a4.034 4.034 0 0 0 3.403 1.868 4.083 4.083 0 0 0 4.081-4.083 4.032 4.032 0 0 0-1.452-3.1c.024-.052.056-.096.08-.147a9.628 9.628 0 0 0 4.071-3.291c5.745-.608 8.439-4.951 9.053-8.884.511-.816.918-1.715 1.209-2.673.132-.125.265-.252.392-.384 20.927 3.416 36.087 21.259 36.087 42.519.001 23.759-19.33 43.09-43.09 43.09z"/><g fill="#282121"><path d="M102.936 10.794l-.248-.04-.166.189c-.182.209-.387.399-.589.589l-.092.084-.034.121c-.279.953-.679 1.84-1.19 2.64l-.066.178c-.542 3.665-3.051 7.75-8.464 8.23l-.215.018-.12.179a8.623 8.623 0 0 1-3.957 3.207l-.174.072-.074.171c-1.515 3.551-4.703 5.588-8.754 5.588-1.097 0-2.157-.161-3.15-.476l-.115-.024-.087.006c-.348.026-.71.053-1.059.032l-.414-.019-.143.184a8.663 8.663 0 0 1-2.79 2.37l-.147.076-.062.152a9.485 9.485 0 0 1-1.806 2.872l-.099.167c-1.336 4.101-4.642 6.453-9.065 6.453-2.107 0-3.964-.537-5.518-1.593l-.522-.355-.17.608a43.899 43.899 0 0 0-1.616 11.774c0 24.261 19.737 43.999 43.998 43.999s43.998-19.737 43.998-43.999c.001-21.79-15.598-40.065-37.09-43.453zM54.36 43.31c1.593.937 3.438 1.413 5.496 1.413M54.36 43.31c1.593.937 3.438 1.413 5.496 1.413m36.173 52.616c-23.76 0-43.09-19.333-43.09-43.091 0-3.679.478-7.355 1.421-10.938 1.593.937 3.438 1.413 5.496 1.413 3.04 0 5.645-1.08 7.512-3.004.331.444.851.736 1.446.736a1.814 1.814 0 0 0 1.814-1.814c0-.838-.57-1.535-1.342-1.744.171-.373.332-.757.467-1.161a10.375 10.375 0 0 0 1.85-2.918 9.509 9.509 0 0 0 2.789-2.349c.342.021.691-.004 1.06-.033 1.057.328 2.18.494 3.341.494 1.213 0 2.346-.184 3.402-.508a4.033 4.033 0 0 0 3.403 1.869 4.082 4.082 0 0 0 4.081-4.082 4.034 4.034 0 0 0-1.452-3.1c.024-.051.056-.095.08-.147a9.622 9.622 0 0 0 4.071-3.292c5.745-.607 8.439-4.951 9.054-8.883.51-.816.918-1.715 1.208-2.673.132-.125.265-.251.392-.383 20.927 3.416 36.087 21.259 36.087 42.519.001 23.756-19.33 43.089-43.09 43.089z"/><circle cx="71.083" cy="54.701" r="4.99"/><circle cx="87.412" cy="49.258" r="2.268"/><circle cx="86.505" cy="69.216" r="4.082"/><circle cx="103.288" cy="58.783" r="3.628"/><circle cx="110.091" cy="30.207" r="4.082"/><circle cx="101.473" cy="82.37" r="1.813"/><circle cx="113.72" cy="74.66" r="1.362"/><circle cx="75.618" cy="81.01" r="4.083"/><circle cx="65.186" cy="68.764" r=".907"/><circle cx="119.163" cy="51.073" r="1.361"/><circle cx="128.233" cy="42" r="4.083"/><circle cx="126.873" cy="65.134" r="3.629"/><circle cx="111.452" cy="85.091" r="2.722"/><circle cx="89.225" cy="81.917" r="1.36"/><circle cx="101.019" cy="44.722" r="3.799"/></g></g><g fill="#956143"><path d="M172.863 14.748c4.305 0 7.079 1.189 7.702 1.585 0 6.06-1.529 7.928-3.114 7.928-1.586 0-2.209-.679-5.21-.679-.906 0-2.152.283-2.888.623-.962 2.152-1.302 5.437-1.302 8.721 0 7.362 2.208 9.627 5.663 9.627 1.812 0 3.794-.453 5.437-1.473l1.473 7.872c-2.378 1.699-5.267 2.549-9.004 2.549-9.401 0-13.762-5.664-13.762-19.028-.002-12.911 5.831-17.725 15.005-17.725zM205.765 36.89c0 9.514-3.964 14.611-13.025 14.611-7.021 0-10.873-5.72-10.873-15.177 0-6.739 1.812-14.441 12.743-14.441 8.097 0 11.155 5.437 11.155 15.007zm-11.892 7.363c.679 0 1.415-.17 1.925-.51.17-.623.793-3.059.793-7.022 0-5.89-.565-7.475-2.718-7.475-.681 0-1.359.113-1.983.453-.282.85-.792 3.058-.792 7.022 0 5.889.679 7.532 2.775 7.532zM231.418 36.89c0 9.514-3.964 14.611-13.025 14.611-7.022 0-10.874-5.72-10.874-15.177 0-6.739 1.813-14.441 12.742-14.441 8.098 0 11.157 5.437 11.157 15.007zm-11.894 7.363c.681 0 1.417-.17 1.926-.51.171-.623.793-3.059.793-7.022 0-5.89-.566-7.475-2.719-7.475-.68 0-1.358.113-1.982.453-.283.85-.792 3.058-.792 7.022 0 5.889.681 7.532 2.774 7.532zM249.028 22.393h9.515l-5.776 12.799 6.173 15.743h-10.136l-4.985-14.327v14.327h-9.57V13.898c1.019-.51 3.454-1.019 4.927-1.019 3.624 0 4.644.679 4.644 4.587v17.895l5.208-12.968zM265.451 11.52c2.943 0 4.19 1.417 4.19 4.417 0 2.605-1.586 4.417-5.832 4.417-3.116 0-4.191-1.925-4.191-4.53 0-2.605 1.586-4.304 5.833-4.304zm-5.494 39.415V23.242c1.247-.509 3.172-.849 4.928-.849 3.737 0 4.529 1.076 4.529 4.644v23.898h-9.457zM284.309 21.883c7.815 0 10.362 5.041 10.362 13.479 0 1.473-.056 3.058-.226 4.757H281.93c.17 2.604 1.416 3.964 3.907 3.964 2.888 0 4.701-.906 5.776-.906 1.7 0 2.38 1.585 2.321 6.229-1.982 1.132-5.266 2.096-9.853 2.096-8.836 0-11.949-6.06-11.949-14.781.001-8.609 4.022-14.838 12.177-14.838zm-.114 7.249c-.793 0-1.416.396-1.586.453-.339.85-.736 2.718-.736 5.097l4.416-.396c.114-2.775-.283-5.154-2.094-5.154zM172.863 55.436c4.305 0 7.079 1.189 7.702 1.586 0 6.06-1.529 7.929-3.114 7.929-1.586 0-2.209-.68-5.21-.68-.906 0-2.152.283-2.888.622-.962 2.152-1.302 5.437-1.302 8.723 0 7.36 2.208 9.626 5.663 9.626 1.812 0 3.794-.453 5.437-1.472l1.473 7.871c-2.378 1.699-5.267 2.549-9.004 2.549-9.401 0-13.762-5.663-13.762-19.029-.002-12.911 5.831-17.725 15.005-17.725zM205.765 77.578c0 9.515-3.964 14.611-13.025 14.611-7.021 0-10.873-5.72-10.873-15.178 0-6.739 1.812-14.44 12.743-14.44 8.097 0 11.155 5.437 11.155 15.007zm-11.892 7.362c.679 0 1.415-.171 1.925-.51.17-.623.793-3.058.793-7.021 0-5.891-.565-7.476-2.718-7.476-.681 0-1.359.112-1.983.453-.282.85-.792 3.058-.792 7.022 0 5.89.679 7.532 2.775 7.532zM208.596 63.59c.792-.339 2.322-1.019 4.813-1.019 2.321 0 3.624.68 4.36 3.058 1.303-1.358 3.852-3.058 7.192-3.058 4.699 0 6.908 2.661 6.908 7.758v21.294h-9.343V72.765c0-1.416-.454-2.265-1.87-2.265-1.246 0-2.265.565-2.604.963v20.16h-9.457V63.59zM233.739 63.647h3.455v-2.491c0-3.512 2.491-4.927 8.832-4.418v6.909h5.04v7.135h-5.04v12.063c0 1.472.738 2.037 1.927 2.037s2.095-.226 2.717-.509l.738 6.061c-1.645 1.019-4.363 1.697-7.362 1.697-4.814 0-7.419-2.491-7.419-7.928V70.782h-2.888v-7.135zM253.558 63.59c.962-.566 3.001-1.019 4.587-1.019 2.719 0 3.398 1.416 3.907 4.191 1.246-2.266 3.683-4.191 7.248-4.191.342 1.643.454 3.681.397 5.607-.113 2.321-.397 3.51-2.039 3.51-2.037 0-3.568.511-4.643 1.359v18.575h-9.458V63.59zM293.993 77.578c0 9.515-3.966 14.611-13.025 14.611-7.023 0-10.873-5.72-10.873-15.178 0-6.739 1.811-14.44 12.741-14.44 8.1 0 11.157 5.437 11.157 15.007zM282.1 84.94c.68 0 1.415-.171 1.926-.51.17-.623.792-3.058.792-7.021 0-5.891-.566-7.476-2.718-7.476-.68 0-1.359.112-1.981.453-.284.85-.794 3.058-.794 7.022-.001 5.89.679 7.532 2.775 7.532zM296.651 54.643c1.134-.51 3.116-1.02 4.928-1.02 3.568 0 4.529.963 4.529 4.587V82.9c0 1.359.681 1.981 1.756 1.981.85 0 1.756-.226 1.982-.34l.453 6.061c-1.756 1.02-4.021 1.586-6.569 1.586-4.36 0-7.079-2.492-7.079-7.646V54.643z"/></g></svg>