<svg xmlns="http://www.w3.org/2000/svg" width="452.434" height="452.434" viewBox="301.283 98.783 452.434 452.434"><path fill="#C9AC7D" d="M527.5 545.084c-122.162 0-221.552-99.392-221.552-221.552 0-18.92 2.458-37.818 7.31-56.243 8.185 4.822 17.677 7.266 28.255 7.266 15.632 0 29.025-5.545 38.624-15.447 1.7 2.283 4.376 3.785 7.436 3.785 5.15 0 9.33-4.18 9.33-9.327 0-4.305-2.935-7.892-6.904-8.965.885-1.918 1.71-3.89 2.405-5.966 3.927-4.348 7.123-9.39 9.51-15.01 5.445-3.004 10.263-7.062 14.338-12.076 1.753.11 3.553-.022 5.45-.167 5.427 1.685 11.205 2.537 17.176 2.537 6.234 0 12.06-.946 17.484-2.61 3.708 5.763 10.118 9.606 17.497 9.606 11.59 0 20.99-9.398 20.99-20.99 0-6.418-2.915-12.113-7.463-15.937.12-.268.283-.495.405-.766 8.414-3.602 15.62-9.427 20.937-16.917 29.534-3.126 43.388-25.458 46.544-45.678 2.626-4.194 4.72-8.816 6.213-13.742.686-.644 1.366-1.296 2.02-1.973C671.1 122.477 749.054 214.22 749.054 323.53c0 122.162-99.392 221.554-221.554 221.554z"/><g fill="#282121"><path d="M563.005 100.283l-1.273-.2-.85.97c-.932 1.073-1.986 2.053-3.03 3.027l-.472.438-.176.615c-1.44 4.902-3.495 9.468-6.12 13.577l-.34.914c-2.795 18.84-15.69 39.847-43.52 42.314l-1.105.1-.62.918c-5.107 7.538-11.953 13.083-20.346 16.488l-.892.363-.378.887c-7.784 18.256-24.184 28.73-45.006 28.73-5.642 0-11.097-.824-16.2-2.448l-.59-.125-.447.033c-1.787.13-3.652.267-5.443.158l-2.132-.096-.73.946c-4.01 5.168-8.836 9.27-14.35 12.183l-.75.396-.317.782c-2.27 5.58-5.396 10.546-9.287 14.763l-.503.858c-6.874 21.087-23.866 33.182-46.613 33.182-10.827 0-20.373-2.757-28.368-8.19l-2.688-1.828-.87 3.13c-5.51 19.79-8.305 40.154-8.305 60.532 0 124.735 101.48 226.216 226.217 226.216S753.717 448.436 753.717 323.7c0-112.034-80.207-205.997-190.712-223.417zM313.258 267.46c8.185 4.822 17.677 7.267 28.255 7.267m-28.255-7.267c8.185 4.822 17.677 7.267 28.255 7.267M527.5 545.254c-122.162 0-221.552-99.393-221.552-221.553 0-18.917 2.458-37.817 7.31-56.24 8.185 4.822 17.677 7.267 28.255 7.267 15.63 0 29.025-5.545 38.624-15.447 1.7 2.285 4.375 3.787 7.436 3.787 5.15 0 9.33-4.18 9.33-9.33 0-4.304-2.935-7.89-6.905-8.964.887-1.917 1.712-3.89 2.407-5.966 3.927-4.347 7.123-9.39 9.51-15.01 5.445-3.003 10.263-7.062 14.338-12.075 1.755.107 3.555-.023 5.45-.168 5.428 1.684 11.205 2.537 17.176 2.537 6.235 0 12.06-.945 17.485-2.61 3.707 5.764 10.117 9.607 17.496 9.607 11.592 0 20.99-9.398 20.99-20.988 0-6.42-2.915-12.115-7.463-15.94.12-.265.283-.492.405-.764 8.414-3.6 15.62-9.427 20.938-16.917 29.535-3.126 43.388-25.458 46.546-45.678 2.625-4.193 4.72-8.815 6.213-13.74.683-.646 1.364-1.297 2.018-1.974 107.59 17.56 185.546 109.302 185.546 218.613 0 122.16-99.392 221.554-221.554 221.554z"/><circle cx="399.233" cy="326.034" r="25.654"/><circle cx="483.188" cy="298.048" r="11.661"/><path d="M478.526 379.673c11.59 0 20.987 9.397 20.987 20.99 0 11.592-9.397 20.988-20.987 20.988-11.594 0-20.99-9.395-20.99-20.988 0-11.592 9.397-20.99 20.99-20.99z"/><circle cx="564.814" cy="347.023" r="18.657"/><circle cx="599.796" cy="200.099" r="20.989"/><circle cx="555.486" cy="468.294" r="9.328"/><circle cx="618.453" cy="428.647" r="6.998"/><circle cx="422.554" cy="461.296" r="20.99"/><circle cx="368.915" cy="398.33" r="4.664"/><circle cx="646.439" cy="307.376" r="6.997"/><circle cx="693.081" cy="260.733" r="20.989"/><circle cx="686.085" cy="379.672" r="18.658"/><circle cx="606.793" cy="482.287" r="13.992"/><circle cx="492.518" cy="465.962" r="6.996"/><circle cx="553.154" cy="274.726" r="19.534"/></g></svg>