<svg xmlns="http://www.w3.org/2000/svg" width="452.434" height="452.434" viewBox="301.283 98.783 452.434 452.434"><path fill="#C9AC7D" d="M527.5 545.084c-122.162 0-221.552-99.392-221.552-221.552 0-18.919 2.458-37.818 7.31-56.243 8.185 4.823 17.677 7.267 28.255 7.267 15.632 0 29.025-5.545 38.624-15.447 1.699 2.284 4.376 3.786 7.436 3.786 5.149 0 9.33-4.179 9.33-9.327 0-4.305-2.935-7.892-6.904-8.965.886-1.918 1.711-3.891 2.406-5.966 3.927-4.348 7.123-9.39 9.511-15.01 5.444-3.004 10.262-7.062 14.337-12.076 1.753.108 3.553-.023 5.449-.168 5.428 1.685 11.206 2.537 17.177 2.537 6.235 0 12.062-.946 17.485-2.611 3.708 5.764 10.118 9.607 17.497 9.607 11.59 0 20.988-9.398 20.988-20.989 0-6.419-2.914-12.114-7.462-15.938.12-.267.283-.494.405-.765a49.515 49.515 0 0 0 20.937-16.917c29.535-3.126 43.389-25.458 46.545-45.678 2.626-4.193 4.72-8.815 6.213-13.741a57.826 57.826 0 0 0 2.02-1.973c107.592 17.562 185.547 109.304 185.547 218.616-.001 122.161-99.392 221.553-221.554 221.553z"/><g fill="#282121"><path d="M563.005 100.283l-1.273-.201-.85.972c-.932 1.072-1.986 2.052-3.03 3.026l-.472.438-.176.615c-1.439 4.902-3.495 9.468-6.12 13.577l-.341.914c-2.794 18.84-15.688 39.847-43.518 42.314l-1.106.099-.619.919c-5.107 7.538-11.953 13.083-20.346 16.488l-.892.363-.378.887c-7.784 18.256-24.184 28.731-45.006 28.731-5.642 0-11.097-.825-16.199-2.449l-.591-.125-.447.032c-1.788.13-3.653.267-5.444.158l-2.132-.097-.73.946c-4.009 5.168-8.836 9.269-14.349 12.183l-.752.396-.316.783c-2.271 5.579-5.396 10.546-9.287 14.763l-.504.858c-6.874 21.087-23.866 33.182-46.613 33.182-10.827 0-20.373-2.757-28.368-8.19l-2.688-1.828-.871 3.129c-5.51 19.791-8.304 40.155-8.304 60.533 0 124.736 101.479 226.217 226.217 226.217s226.217-101.479 226.217-226.217c0-112.033-80.207-205.996-190.712-223.416zM313.258 267.46c8.185 4.822 17.677 7.267 28.255 7.267m-28.255-7.267c8.185 4.822 17.677 7.267 28.255 7.267M527.5 545.254c-122.162 0-221.552-99.393-221.552-221.553 0-18.918 2.458-37.818 7.31-56.241 8.185 4.822 17.677 7.267 28.255 7.267 15.63 0 29.025-5.545 38.624-15.447 1.699 2.285 4.375 3.787 7.436 3.787 5.149 0 9.33-4.179 9.33-9.329 0-4.305-2.935-7.892-6.905-8.965.887-1.917 1.712-3.889 2.407-5.966 3.927-4.347 7.123-9.39 9.511-15.01 5.444-3.003 10.262-7.062 14.337-12.075 1.755.107 3.555-.023 5.449-.168 5.429 1.684 11.206 2.537 17.177 2.537 6.236 0 12.062-.946 17.486-2.612 3.707 5.765 10.117 9.608 17.496 9.608 11.591 0 20.989-9.398 20.989-20.988 0-6.418-2.915-12.114-7.463-15.938.12-.266.283-.493.405-.765 8.414-3.601 15.621-9.427 20.938-16.917 29.535-3.125 43.388-25.457 46.546-45.677 2.625-4.193 4.719-8.815 6.213-13.741a60.581 60.581 0 0 0 2.019-1.973c107.591 17.561 185.546 109.302 185.546 218.613-.001 122.16-99.392 221.553-221.554 221.553z"/><circle cx="399.233" cy="326.034" r="25.654"/><circle cx="483.188" cy="298.048" r="11.661"/><path d="M478.526 379.673c11.59 0 20.987 9.397 20.987 20.989 0 11.593-9.397 20.989-20.987 20.989-11.594 0-20.989-9.396-20.989-20.989 0-11.592 9.396-20.989 20.989-20.989z"/><circle cx="564.814" cy="347.023" r="18.657"/><circle cx="599.796" cy="200.099" r="20.989"/><circle cx="555.486" cy="468.294" r="9.328"/><circle cx="618.453" cy="428.647" r="6.998"/><circle cx="422.554" cy="461.296" r="20.99"/><circle cx="368.915" cy="398.33" r="4.664"/><circle cx="646.439" cy="307.376" r="6.997"/><circle cx="693.081" cy="260.733" r="20.989"/><circle cx="686.085" cy="379.672" r="18.658"/><circle cx="606.793" cy="482.287" r="13.992"/><circle cx="492.518" cy="465.962" r="6.996"/><circle cx="553.154" cy="274.726" r="19.534"/></g></svg>