<svg xmlns="http://www.w3.org/2000/svg" xmlns:xlink="http://www.w3.org/1999/xlink" width="372" height="109" viewBox="0 0 372 109"><defs><path id="a" d="M0 0h372v109H0z"/></defs><use xlink:href="#a" overflow="visible" fill="#C7B570"/><g fill="#B25538"><path d="M111.229 24.095C102.833 15.697 91.827 11.5 80.823 11.5c-11.005 0-22.009 4.197-30.406 12.595-16.792 16.792-16.792 44.018 0 60.81C58.813 93.301 69.818 97.5 80.823 97.5c11.004 0 22.011-4.199 30.406-12.595 16.792-16.792 16.792-44.018 0-60.81zm-4.75 56.059c-6.852 6.853-15.965 10.627-25.656 10.627s-18.802-3.774-25.656-10.627c-14.145-14.146-14.145-37.163 0-51.309 6.854-6.853 15.965-10.626 25.656-10.626s18.804 3.774 25.656 10.626c14.145 14.147 14.145 37.164 0 51.309z"/><path d="M74.942 56.573l-8.872-9.639-9.801 9.805-.002-.003 18.475 18.48 31.222-31.219-7.134-7.254zM137.535 41.543c-.296-1.543-.415-3.324-.415-4.452 0-3.442 1.306-4.036 5.223-4.036h18.638c.237 1.187.297 2.612.297 3.74 0 3.561-1.188 4.689-4.274 4.452l-2.968-.06v29.204h-10.15V41.247l-6.351.296zM186.029 55.67c0 9.973-4.155 15.314-13.652 15.314-7.36 0-11.396-5.995-11.396-15.908 0-7.063 1.899-15.136 13.355-15.136 8.488 0 11.693 5.699 11.693 15.73zm-12.465 7.717c.712 0 1.484-.178 2.018-.534.178-.653.831-3.206.831-7.36 0-6.173-.593-7.835-2.849-7.835-.712 0-1.424.119-2.077.475-.297.891-.831 3.205-.831 7.36 0 6.172.712 7.894 2.908 7.894zM198.255 39.94c2.611 0 4.393 1.069 5.283 1.899V31.393c1.188-.475 3.205-.831 5.283-.831 3.561 0 4.451.653 4.451 4.808v35.14c-1.188.297-2.908.533-4.748.475-2.553-.06-4.037-.713-4.631-3.324-1.188 1.484-3.383 3.324-7.004 3.324-5.936 0-9.021-6.174-9.021-15.789 0-9.26 3.62-15.256 10.387-15.256zm2.611 23.208c1.068 0 2.137-.475 2.672-.949V48.607c-.891-.772-2.553-1.365-4.512-.891-.594 1.365-.949 4.57-.949 7.539 0 6.054 1.01 7.893 2.789 7.893zM241.288 55.67c0 9.973-4.156 15.314-13.652 15.314-7.361 0-11.396-5.995-11.396-15.908 0-7.063 1.898-15.136 13.355-15.136 8.488 0 11.693 5.699 11.693 15.73zm-12.465 7.717c.711 0 1.482-.178 2.018-.534.178-.653.83-3.206.83-7.36 0-6.173-.594-7.835-2.848-7.835-.713 0-1.426.119-2.078.475-.297.891-.832 3.205-.832 7.36 0 6.172.713 7.894 2.91 7.894zM268.233 32.462c3.916 0 7.182.593 9.674 1.603-.355 6.529-1.84 8.072-3.799 8.072-2.314 0-3.383-.95-6.469-.95-.891 0-1.662.119-2.256.356-.297.475-.416 1.187-.416 1.781 0 .89.238 2.137 4.393 3.68 7.539 2.553 9.201 6.767 9.201 11.574 0 7.776-5.402 12.406-13 12.406-5.639 0-8.844-1.246-10.625-2.434-.059-5.639 1.781-7.539 3.562-7.539 2.373 0 3.799 1.484 7.062 1.484.713 0 1.543-.059 2.197-.355.236-.179.533-1.188.533-1.841 0-1.246-.236-2.671-4.629-4.333-5.996-2.315-8.727-5.342-8.727-11.278.003-6.766 4.159-12.226 13.299-12.226zM294.587 33.055c8.783 0 12.168 3.977 12.168 13.059 0 8.132-4.631 14.068-13.475 14.068-.713 0-1.365 0-1.781-.06v10.269h-10.031V33.055h13.119zm1.246 18.163c.533-1.187.771-3.086.771-5.401 0-3.383-.713-5.104-3.146-5.104-.713 0-1.424.059-1.959.178v10.862c.238.06 1.129.178 1.781.178.713 0 1.84-.119 2.553-.713zM322.603 63.268h-6.113l-.832 7.123H305.39l6.41-37.335h16.086l6.291 36.98c-1.305.475-3.383.83-5.223.83-4.512 0-5.758-1.188-6.115-5.639l-.236-1.959zm-5.223-7.835h4.332l-1.484-13.177h-1.246l-1.602 13.177z"/></g></svg>