<svg xmlns="http://www.w3.org/2000/svg" xmlns:xlink="http://www.w3.org/1999/xlink" width="527" height="458" viewBox="0 0 527 458"><text transform="translate(585.09 171.076)"><tspan x="0" y="0" fill="#956143" font-family="'Urbana-Bold'" font-size="59.355">Cookie </tspan><tspan x="0" y="42.646" fill="#956143" font-family="'Urbana-Bold'" font-size="59.355">Control</tspan></text><defs><path id="a" d="M0 0h527v458H0z"/></defs><use xlink:href="#a" overflow="visible" fill="#C7B570"/><g fill="#B25538"><path d="M363.566 128.938c-27.631-27.639-63.853-41.451-100.068-41.451s-72.431 13.812-100.065 41.451c-55.26 55.261-55.26 144.862 0 200.124 27.635 27.631 63.85 41.449 100.065 41.449s72.438-13.818 100.068-41.449c55.261-55.261 55.261-144.863 0-200.124zm-15.634 184.49c-22.549 22.551-52.54 34.975-84.434 34.975-31.892 0-61.876-12.424-84.432-34.975-46.551-46.553-46.551-122.302 0-168.857 22.555-22.552 52.54-34.971 84.432-34.971 31.894 0 61.885 12.419 84.434 34.971 46.551 46.555 46.551 122.304 0 168.857z"/><path d="M243.184 235.822L213.986 204.1l-32.256 32.269-.007-.01 60.8 60.817 102.754-102.742-23.48-23.873z"/></g></svg>