<svg xmlns="http://www.w3.org/2000/svg" xmlns:xlink="http://www.w3.org/1999/xlink" width="372" height="109" viewBox="0 0 372 109"><defs><path id="a" d="M0 0h372v109H0z"/></defs><use xlink:href="#a" overflow="visible" fill="#C7B570"/><g fill="#B25538"><path d="M111.23 24.095C102.832 15.697 91.826 11.5 80.822 11.5c-11.005 0-22.01 4.197-30.406 12.595-16.792 16.792-16.792 44.018 0 60.81C58.813 93.3 69.817 97.5 80.823 97.5c11.004 0 22.01-4.2 30.406-12.595 16.79-16.792 16.79-44.018 0-60.81zm-4.75 56.06C99.626 87.006 90.513 90.78 80.822 90.78S62.02 87.008 55.167 80.155c-14.145-14.146-14.145-37.163 0-51.31C62.02 21.993 71.132 18.22 80.823 18.22s18.804 3.773 25.656 10.625c14.144 14.147 14.144 37.164 0 51.31z"/><path d="M74.942 56.573l-8.872-9.64-9.8 9.806-.003-.004 18.475 18.48 31.222-31.22-7.134-7.253zM137.535 41.543c-.296-1.543-.415-3.324-.415-4.452 0-3.44 1.306-4.035 5.223-4.035h18.638c.238 1.187.298 2.612.298 3.74 0 3.56-1.188 4.69-4.274 4.452l-2.968-.06V70.39h-10.15V41.248l-6.35.296zM186.03 55.67c0 9.973-4.156 15.314-13.653 15.314-7.36 0-11.396-5.995-11.396-15.908 0-7.063 1.9-15.136 13.356-15.136 8.488 0 11.693 5.7 11.693 15.73zm-12.466 7.717c.712 0 1.484-.178 2.018-.534.178-.653.83-3.206.83-7.36 0-6.173-.592-7.835-2.848-7.835-.712 0-1.424.12-2.077.475-.297.89-.83 3.205-.83 7.36 0 6.172.71 7.894 2.907 7.894zM198.255 39.94c2.61 0 4.393 1.07 5.283 1.9V31.392c1.188-.475 3.205-.83 5.283-.83 3.562 0 4.452.652 4.452 4.807v35.14c-1.188.297-2.908.533-4.748.475-2.553-.06-4.037-.713-4.63-3.324-1.19 1.485-3.384 3.325-7.005 3.325-5.937 0-9.022-6.174-9.022-15.79 0-9.26 3.62-15.255 10.387-15.255zm2.61 23.208c1.07 0 2.138-.475 2.673-.95V48.61c-.89-.773-2.553-1.366-4.512-.892-.594 1.365-.95 4.57-.95 7.54 0 6.053 1.01 7.892 2.79 7.892zM241.288 55.67c0 9.973-4.156 15.314-13.652 15.314-7.36 0-11.396-5.995-11.396-15.908 0-7.063 1.898-15.136 13.355-15.136 8.488 0 11.693 5.7 11.693 15.73zm-12.465 7.717c.71 0 1.482-.178 2.018-.534.18-.653.83-3.206.83-7.36 0-6.173-.593-7.835-2.847-7.835-.713 0-1.426.12-2.078.475-.297.89-.832 3.205-.832 7.36 0 6.172.713 7.894 2.91 7.894zM268.233 32.462c3.916 0 7.182.593 9.674 1.603-.355 6.53-1.84 8.072-3.8 8.072-2.313 0-3.382-.95-6.468-.95-.892 0-1.663.12-2.257.356-.297.475-.416 1.187-.416 1.78 0 .89.238 2.138 4.393 3.68 7.54 2.554 9.2 6.768 9.2 11.575 0 7.776-5.4 12.406-13 12.406-5.638 0-8.843-1.246-10.624-2.434-.06-5.64 1.78-7.54 3.562-7.54 2.373 0 3.8 1.485 7.062 1.485.713 0 1.543-.06 2.197-.355.236-.18.533-1.188.533-1.84 0-1.247-.236-2.672-4.63-4.334-5.995-2.315-8.726-5.342-8.726-11.278.003-6.766 4.16-12.226 13.3-12.226zM294.587 33.055c8.783 0 12.168 3.977 12.168 13.06 0 8.13-4.63 14.067-13.475 14.067-.713 0-1.365 0-1.78-.06v10.27h-10.032V33.054h13.12zm1.246 18.163c.533-1.187.77-3.086.77-5.4 0-3.384-.712-5.105-3.145-5.105-.713 0-1.424.06-1.96.178v10.863c.24.06 1.13.178 1.782.178.713 0 1.84-.118 2.553-.712zM322.603 63.268h-6.113l-.832 7.123H305.39l6.41-37.334h16.086l6.29 36.98c-1.304.475-3.382.83-5.222.83-4.512 0-5.758-1.188-6.115-5.64l-.237-1.958zm-5.223-7.835h4.332l-1.484-13.177h-1.246l-1.602 13.177z"/></g></svg>